# xmcd
#
# Track frame offsets:
#	150
#	11519
#	27273
#	43566
#	57284
#	71548
#	91608
#	112092
#	124719
#	134746
#	147190
#	162866
#	176356
#	201844
#	218915
#	229701
#	251780
#	272698
#
# Disc length: 3890 seconds
#
# Revision: 2
# Processed by: cddbd v1.5.1PL0 Copyright (c) Steve Scherf et al.
# Submitted via: EasyCDDAExtractor 4.6.9.1
#
DISCID=000f3012
DTITLE=Compil - American Spirit - CD 2 - Blues
DYEAR=2002
DGENRE=Blues
TTITLE0=Boom Boom (John Lee Hooker)
TTITLE1=I Put A Spell On You (Screaming Jay Hawkins)
TTITLE2=Mannish Boy (Muddy Waters)
TTITLE3=Mojo Hand (Lightnin' Hopkins)
TTITLE4=Born Under A Bad Sign (Albert King)
TTITLE5=Damn Right, I Got The Blues (Buddy Guy)
TTITLE6=The Thrill Is Gone (BB King)
TTITLE7=Shake Your Money Maker (Elmore James)
TTITLE8=Dimples (John Lee Hooker)
TTITLE9=Big Boss Man (Jimmy Reed)
TTITLE10=The Score (Robert Cray)
TTITLE11=T-Bone Shuffle (T-Bone Walker)
TTITLE12=Got My Mojo Working (Junior Wells)
TTITLE13=My Babe (Albert King)
TTITLE14=Mystery Train (Junior Parker)
TTITLE15=Sweet Home Chicago (Luther Allison)
TTITLE16=How Many More Years (Magic Slim)
TTITLE17=Bad Connection (Popa Chubby)
EXTD=
EXTT0=
EXTT1=
EXTT2=
EXTT3=
EXTT4=
EXTT5=
EXTT6=
EXTT7=
EXTT8=
EXTT9=
EXTT10=
EXTT11=
EXTT12=
EXTT13=
EXTT14=
EXTT15=
EXTT16=
EXTT17=
PLAYORDER=
